<svg width="24" height="20" viewBox="0 0 24 20" fill="none" xmlns="http://www.w3.org/2000/svg">
<path d="M24.0004 10.0001C24.0004 10.2653 23.8951 10.5196 23.7075 10.7072C23.52 10.8947 23.2656 11.0001 23.0004 11.0001H3.41417L10.7079 18.2926C10.8008 18.3855 10.8745 18.4958 10.9248 18.6172C10.9751 18.7386 11.001 18.8687 11.001 19.0001C11.001 19.1315 10.9751 19.2616 10.9248 19.383C10.8745 19.5044 10.8008 19.6147 10.7079 19.7076C10.615 19.8005 10.5047 19.8742 10.3833 19.9245C10.2619 19.9747 10.1318 20.0006 10.0004 20.0006C9.86903 20.0006 9.73892 19.9747 9.61752 19.9245C9.49613 19.8742 9.38583 19.8005 9.29292 19.7076L0.29292 10.7076C0.199944 10.6147 0.126185 10.5044 0.0758607 10.383C0.0255364 10.2616 -0.000366211 10.1315 -0.000366211 10.0001C-0.000366211 9.86865 0.0255364 9.73853 0.0758607 9.61713C0.126185 9.49573 0.199944 9.38544 0.29292 9.29257L9.29292 0.292568C9.48056 0.104927 9.73506 -0.000488283 10.0004 -0.000488281C10.2658 -0.000488279 10.5203 0.104927 10.7079 0.292568C10.8956 0.480208 11.001 0.734704 11.001 1.00007C11.001 1.26543 10.8956 1.51993 10.7079 1.70757L3.41417 9.00007H23.0004C23.2656 9.00007 23.52 9.10542 23.7075 9.29296C23.8951 9.4805 24.0004 9.73485 24.0004 10.0001Z" fill="white"/>
</svg>
