<svg width="32" height="32" viewBox="0 0 32 32" fill="none" xmlns="http://www.w3.org/2000/svg">
<path d="M16.0364 0H15.9636C7.14714 0 0 7.14713 0 15.9636V16.0364C0 24.8529 7.14714 32 15.9636 32H16.0364C24.8529 32 32 24.8529 32 16.0364V15.9636C32 7.14713 24.8529 0 16.0364 0Z" fill="white"/>
<path d="M7.63142 10.6361C7.20988 10.2449 7.00024 9.76054 7.00024 9.18429C7.00024 8.60804 7.211 8.10241 7.63142 7.71002C8.05296 7.31875 8.59558 7.12256 9.2604 7.12256C9.92522 7.12256 10.4466 7.31875 10.867 7.71002C11.2885 8.10129 11.4981 8.59346 11.4981 9.18429C11.4981 9.77512 11.2874 10.2449 10.867 10.6361C10.4454 11.0274 9.91065 11.2236 9.2604 11.2236C8.61016 11.2236 8.05296 11.0274 7.63142 10.6361ZM11.1439 12.8806V24.8765H7.35338V12.8806H11.1439Z" fill="#40534E"/>
<path d="M23.7621 14.0651C24.5883 14.962 25.0009 16.193 25.0009 17.7603V24.6641H21.401V18.2468C21.401 17.4564 21.1959 16.8421 20.7867 16.4048C20.3775 15.9676 19.8259 15.7479 19.1353 15.7479C18.4447 15.7479 17.893 15.9665 17.4838 16.4048C17.0746 16.8421 16.8695 17.4564 16.8695 18.2468V24.6641H13.2483V12.8464H16.8695V14.4137C17.2361 13.8913 17.7305 13.4787 18.3516 13.1749C18.9727 12.8711 19.6712 12.7197 20.4481 12.7197C21.8315 12.7197 22.9369 13.1682 23.7621 14.0639V14.0651Z" fill="#40534E"/>
</svg>
