<svg width="32" height="32" viewBox="0 0 32 32" fill="none" xmlns="http://www.w3.org/2000/svg">
<path d="M31.9978 16.0004C31.9978 24.0814 26.0078 30.762 18.2265 31.8462C17.4989 31.9471 16.7545 31.9997 15.9989 31.9997C15.1267 31.9997 14.2702 31.9302 13.4361 31.7957C5.81839 30.5692 0 23.9637 0 16.0004C0 7.16387 7.16368 0 16 0C24.8363 0 32 7.16387 32 16.0004H31.9978Z" fill="white"/>
<path d="M18.2265 12.8481V16.3336H22.5382L21.8555 21.0288H18.2265V31.8464C17.499 31.9473 16.7546 32 15.999 32C15.1268 32 14.2703 31.9305 13.4362 31.796V21.0288H9.45972V16.3336H13.4362V12.069C13.4362 9.42315 15.5808 7.27734 18.2277 7.27734V7.27959C18.2355 7.27959 18.2422 7.27734 18.2501 7.27734H22.5393V11.338H19.7366C18.9037 11.338 18.2277 12.014 18.2277 12.847L18.2265 12.8481Z" fill="#40534E"/>
</svg>
