<svg width="80" height="80" viewBox="0 0 80 80" fill="none" xmlns="http://www.w3.org/2000/svg">
<path opacity="0.2" d="M42.5 33.75C42.5 36.9639 41.547 40.1057 39.7614 42.778C37.9758 45.4503 35.4379 47.5331 32.4686 48.763C29.4993 49.993 26.232 50.3148 23.0798 49.6878C19.9276 49.0608 17.0321 47.5131 14.7595 45.2405C12.4869 42.9679 10.9393 40.0724 10.3122 36.9202C9.68524 33.768 10.007 30.5007 11.237 27.5314C12.4669 24.5621 14.5497 22.0242 17.222 20.2386C19.8943 18.453 23.0361 17.5 26.25 17.5C30.5598 17.5 34.693 19.212 37.7405 22.2595C40.788 25.307 42.5 29.4402 42.5 33.75Z" fill="#A2EF8C"/>
<path d="M36.6407 49.35C39.9913 47.1194 42.5351 43.8697 43.896 40.0814C45.2568 36.2932 45.3625 32.1676 44.1973 28.3147C43.032 24.4618 40.6578 21.0862 37.4257 18.687C34.1937 16.2878 30.2753 14.9924 26.25 14.9924C22.2248 14.9924 18.3064 16.2878 15.0743 18.687C11.8422 21.0862 9.46803 24.4618 8.30282 28.3147C7.1376 32.1676 7.24323 36.2932 8.60409 40.0814C9.96494 43.8697 12.5088 47.1194 15.8594 49.35C9.79844 51.5839 4.62224 55.7176 1.10316 61.1344C0.918207 61.4093 0.78974 61.7182 0.725224 62.0432C0.660709 62.3682 0.661431 62.7027 0.727349 63.0274C0.793268 63.3521 0.923068 63.6604 1.1092 63.9345C1.29534 64.2086 1.5341 64.443 1.8116 64.624C2.08911 64.805 2.39982 64.929 2.72568 64.9889C3.05155 65.0487 3.38606 65.0432 3.70977 64.9727C4.03348 64.9021 4.33995 64.7679 4.61134 64.5779C4.88273 64.3878 5.11365 64.1457 5.29066 63.8657C7.56063 60.3744 10.6668 57.5054 14.327 55.5193C17.9873 53.5333 22.0857 52.493 26.25 52.493C30.4144 52.493 34.5128 53.5333 38.173 55.5193C41.8333 57.5054 44.9394 60.3744 47.2094 63.8657C47.5761 64.4106 48.1425 64.7894 48.7862 64.9201C49.4299 65.0508 50.0992 64.9229 50.6494 64.564C51.1996 64.2052 51.5864 63.6443 51.7263 63.0025C51.8662 62.3607 51.7478 61.6897 51.3969 61.1344C47.8778 55.7176 42.7016 51.5839 36.6407 49.35ZM12.5 33.75C12.5 31.0305 13.3065 28.3721 14.8173 26.1109C16.3282 23.8498 18.4757 22.0874 20.9881 21.0467C23.5006 20.006 26.2653 19.7337 28.9325 20.2642C31.5998 20.7948 34.0498 22.1043 35.9728 24.0273C37.8957 25.9503 39.2053 28.4003 39.7358 31.0675C40.2664 33.7348 39.9941 36.4995 38.9534 39.0119C37.9127 41.5244 36.1503 43.6719 33.8891 45.1827C31.6279 46.6936 28.9695 47.5 26.25 47.5C22.6046 47.4959 19.1096 46.0459 16.5319 43.4682C13.9542 40.8905 12.5042 37.3955 12.5 33.75ZM78.1688 64.5938C77.6135 64.9559 76.9371 65.0826 76.2883 64.9461C75.6396 64.8095 75.0716 64.4209 74.7094 63.8657C72.4422 60.3723 69.3364 57.5021 65.6754 55.5168C62.0144 53.5316 57.9147 52.4945 53.75 52.5C53.087 52.5 52.4511 52.2366 51.9823 51.7678C51.5134 51.299 51.25 50.6631 51.25 50C51.25 49.337 51.5134 48.7011 51.9823 48.2323C52.4511 47.7634 53.087 47.5 53.75 47.5C55.7749 47.4981 57.7744 47.049 59.6056 46.1848C61.4368 45.3205 63.0546 44.0625 64.3432 42.5006C65.6319 40.9387 66.5597 39.1114 67.0603 37.1493C67.5609 35.1873 67.6219 33.1389 67.2391 31.1505C66.8563 29.1621 66.039 27.2828 64.8457 25.6469C63.6524 24.011 62.1125 22.6588 60.336 21.687C58.5595 20.7152 56.5903 20.1478 54.5692 20.0252C52.548 19.9027 50.5246 20.2281 48.6438 20.9782C48.3371 21.1107 48.007 21.1805 47.6729 21.1833C47.3388 21.1861 47.0076 21.122 46.6987 20.9946C46.3898 20.8672 46.1096 20.6793 45.8746 20.4418C45.6397 20.2043 45.4547 19.9221 45.3306 19.6119C45.2065 19.3017 45.1459 18.9698 45.1522 18.6357C45.1586 18.3017 45.2319 17.9723 45.3677 17.6671C45.5035 17.3618 45.6991 17.0869 45.943 16.8586C46.1869 16.6302 46.474 16.453 46.7875 16.3375C51.0921 14.6208 55.8799 14.559 60.2273 16.1641C64.5748 17.7692 68.1738 20.9274 70.33 25.0295C72.4863 29.1315 73.047 33.8868 71.9041 38.3779C70.7611 42.869 67.9955 46.7777 64.1407 49.35C70.2016 51.5839 75.3778 55.7176 78.8969 61.1344C79.259 61.6897 79.3857 62.3661 79.2492 63.0149C79.1127 63.6636 78.724 64.2316 78.1688 64.5938Z" fill="#A2EF8C"/>
</svg>
