<svg width="114" height="180" viewBox="0 0 114 180" fill="none" xmlns="http://www.w3.org/2000/svg">
<path opacity="0.4" fill-rule="evenodd" clip-rule="evenodd" d="M75.6124 -6.85286e-06L1.13243e-05 45.0058L3.94652e-06 129.397L75.5694 180L154 134.984L154 44.9913L75.6124 -6.85286e-06ZM151.25 91.9603L151.25 48.1726L121 65.5349L121 109.865L151.25 91.9603ZM151.25 95.1664L151.25 133.381L121 150.743L121 113.071L151.25 95.1664ZM118.25 114.699L118.25 152.322L77 175.998L77 139.115L118.25 114.699ZM74.25 139.1L74.25 175.797L34.375 149.096L34.375 114.624L74.25 139.1ZM34.375 111.387L74.25 135.863L74.25 90.7746L34.5844 67.1649L34.375 67.2911L34.375 111.387ZM31.625 112.936L31.625 147.254L2.75 127.919L2.75001 95.212L31.625 112.936ZM2.75001 91.9749L31.625 109.699L31.625 65.7271L31.8952 65.5643L2.75001 48.2166L2.75001 91.9749ZM77 135.909L118.25 111.493L118.25 67.1133L77 90.7891L77 135.909ZM116.51 64.9307L75.6376 88.3897L37.2647 65.5496L76.4468 41.9362L116.51 64.9307ZM73.7091 40.3648L34.5756 63.9489L4.07215 45.7928L42.9001 22.6817L73.7091 40.3648ZM45.6211 21.0621L76.4129 38.7354L106.24 20.7601L75.6376 3.19577L45.6211 21.0621ZM108.977 22.3314L79.1506 40.3067L119.281 63.3401L149.854 45.7928L108.977 22.3314Z" fill="url(#paint0_linear_84_475)" fill-opacity="0.5"/>
<defs>
<linearGradient id="paint0_linear_84_475" x1="1.63644e-05" y1="130.202" x2="150.063" y2="43.8865" gradientUnits="userSpaceOnUse">
<stop stop-color="white"/>
<stop offset="1" stop-color="#748C85"/>
</linearGradient>
</defs>
</svg>
