<svg width="80" height="80" viewBox="0 0 80 80" fill="none" xmlns="http://www.w3.org/2000/svg">
<path opacity="0.2" d="M67.4782 31.475C67.2048 24.9426 64.3832 18.7773 59.6182 14.3004C54.8533 9.82361 48.5241 7.39159 41.9874 7.52565C35.4507 7.65971 29.2266 10.3492 24.6492 15.0176C20.0718 19.686 17.5054 25.9619 17.5 32.5L10.2032 46.5219C9.95156 47.1078 9.93341 47.7678 10.1524 48.3668C10.3714 48.9657 10.811 49.4583 11.3813 49.7437L20 53.6906V65C20 65.663 20.2634 66.2989 20.7323 66.7678C21.2011 67.2366 21.837 67.5 22.5 67.5H37.5C37.5 68.8261 38.0268 70.0978 38.9645 71.0355C39.9022 71.9732 41.174 72.5 42.5 72.5H60L57.5 52.5C60.7462 50.0698 63.3513 46.8852 65.0899 43.2218C66.8285 39.5584 67.6483 35.5265 67.4782 31.475ZM35.0407 23.15C34.9052 22.1145 35.0974 21.0625 35.5903 20.1418C36.0832 19.2211 36.8521 18.4778 37.7889 18.0163C38.7258 17.5548 39.7836 17.3982 40.814 17.5685C41.8443 17.7389 42.7955 18.2276 43.534 18.9661C44.2724 19.7045 44.7611 20.6557 44.9315 21.6861C45.1018 22.7164 44.9453 23.7743 44.4837 24.7111C44.0222 25.648 43.279 26.4168 42.3582 26.9097C41.4375 27.4026 40.3856 27.5948 39.35 27.4594C38.2572 27.3164 37.2422 26.8164 36.4629 26.0371C35.6836 25.2578 35.1836 24.2428 35.0407 23.15ZM45.6657 47.4594C44.6301 47.5948 43.5782 47.4026 42.6575 46.9097C41.7367 46.4168 40.9935 45.648 40.532 44.7111C40.0704 43.7743 39.9139 42.7164 40.0842 41.6861C40.2546 40.6557 40.7433 39.7045 41.4817 38.9661C42.2202 38.2276 43.1714 37.7389 44.2017 37.5685C45.2321 37.3982 46.2899 37.5548 47.2268 38.0163C48.1636 38.4778 48.9325 39.2211 49.4254 40.1418C49.9183 41.0625 50.1105 42.1145 49.975 43.15C49.8313 44.2451 49.3291 45.2619 48.5467 46.0415C47.7642 46.8211 46.7457 47.3196 45.65 47.4594H45.6657Z" fill="#A2EF8C"/>
<path d="M60.1562 53.5844C63.3176 50.9288 65.8431 47.5979 67.5467 43.837C69.2503 40.0761 70.0886 35.981 70 31.8531C69.6875 17.5688 58.2468 5.79065 43.9875 5.04065C40.3083 4.84039 36.6264 5.38153 33.1605 6.63193C29.6946 7.88233 26.5152 9.81649 23.8113 12.3195C21.1075 14.8226 18.9342 17.8435 17.4205 21.2028C15.9068 24.5621 15.0837 28.1914 15 31.875L7.98433 45.3688C7.95621 45.425 7.92808 45.4813 7.90308 45.5375C7.40012 46.7099 7.36427 48.0301 7.80288 49.228C8.24149 50.4259 9.12139 51.4109 10.2625 51.9813L10.3406 52.0156L17.5 55.2938V65C17.5 66.3261 18.0267 67.5979 18.9644 68.5356C19.9021 69.4732 21.1739 70 22.5 70H37.5C38.163 70 38.7989 69.7366 39.2677 69.2678C39.7366 68.799 40 68.1631 40 67.5C40 66.837 39.7366 66.2011 39.2677 65.7323C38.7989 65.2634 38.163 65 37.5 65H22.5V53.6906C22.5003 53.2115 22.363 52.7423 22.1042 52.3389C21.8455 51.9356 21.4763 51.6151 21.0406 51.4156L12.5 47.5L19.7093 33.6438C19.8972 33.2916 19.997 32.8992 20 32.5C19.9992 27.4011 21.7304 22.4531 24.9099 18.4668C28.0894 14.4806 32.5285 11.6925 37.5 10.5594V15.4313C35.8319 16.021 34.4261 17.1814 33.5309 18.7075C32.6357 20.2335 32.3088 22.0269 32.608 23.7706C32.9071 25.5143 33.8131 27.0962 35.1658 28.2365C36.5185 29.3769 38.2307 30.0023 40 30.0023C41.7692 30.0023 43.4814 29.3769 44.8341 28.2365C46.1868 27.0962 47.0928 25.5143 47.3919 23.7706C47.6911 22.0269 47.3642 20.2335 46.469 18.7075C45.5738 17.1814 44.168 16.021 42.5 15.4313V10C42.9062 10 43.3125 10 43.7187 10.0313C48.1521 10.2852 52.4122 11.8407 55.9661 14.5031C59.5201 17.1655 62.2102 20.8167 63.7 25H57.5C57.1332 24.9999 56.7709 25.0804 56.4388 25.236C56.1067 25.3915 55.8128 25.6182 55.5781 25.9L47.6062 35.4688C45.9436 34.8493 44.1155 34.8377 42.4452 35.4361C40.7748 36.0345 39.3699 37.2043 38.479 38.7386C37.588 40.2729 37.2683 42.0729 37.5765 43.8202C37.8846 45.5675 38.8008 47.1496 40.1629 48.2865C41.525 49.4235 43.2454 50.0421 45.0196 50.033C46.7939 50.0238 48.5077 49.3875 49.8581 48.2366C51.2084 47.0857 52.1083 45.4944 52.3984 43.744C52.6886 41.9936 52.3504 40.197 51.4437 38.6719L58.6718 30H64.8562C64.9312 30.65 64.977 31.3063 64.9937 31.9688C65.0716 35.5495 64.2967 39.0975 62.7329 42.3196C61.1691 45.5418 58.8613 48.3458 56 50.5C55.6474 50.7643 55.3709 51.1171 55.1986 51.5227C55.0263 51.9282 54.9642 52.3721 55.0187 52.8094L57.5187 72.8094C57.5948 73.4132 57.8884 73.9684 58.3447 74.3712C58.8009 74.7739 59.3883 74.9963 59.9968 74.9969C60.1013 74.9969 60.2056 74.9906 60.3093 74.9781C60.6352 74.9376 60.9499 74.8332 61.2354 74.671C61.5209 74.5088 61.7717 74.2919 61.9734 74.0328C62.1751 73.7736 62.3237 73.4773 62.4109 73.1607C62.498 72.8441 62.5219 72.5134 62.4812 72.1875L60.1562 53.5844ZM40 25C39.5055 25 39.0222 24.8534 38.611 24.5787C38.1999 24.304 37.8795 23.9135 37.6903 23.4567C37.501 22.9999 37.4515 22.4972 37.548 22.0123C37.6445 21.5273 37.8826 21.0819 38.2322 20.7323C38.5818 20.3826 39.0273 20.1445 39.5122 20.0481C39.9972 19.9516 40.4999 20.0011 40.9567 20.1903C41.4135 20.3795 41.8039 20.7 42.0786 21.1111C42.3533 21.5222 42.5 22.0056 42.5 22.5C42.5 23.1631 42.2366 23.7989 41.7677 24.2678C41.2989 24.7366 40.663 25 40 25ZM45 45C44.5055 45 44.0222 44.8534 43.611 44.5787C43.1999 44.304 42.8795 43.9135 42.6903 43.4567C42.501 42.9999 42.4515 42.4972 42.548 42.0123C42.6445 41.5273 42.8826 41.0819 43.2322 40.7323C43.5818 40.3826 44.0273 40.1445 44.5122 40.0481C44.9972 39.9516 45.4999 40.0011 45.9567 40.1903C46.4135 40.3795 46.8039 40.7 47.0786 41.1111C47.3533 41.5222 47.5 42.0056 47.5 42.5C47.5 43.1631 47.2366 43.799 46.7677 44.2678C46.2989 44.7366 45.663 45 45 45Z" fill="#A2EF8C"/>
</svg>
