<svg width="260" height="290" viewBox="0 0 260 290" fill="none" xmlns="http://www.w3.org/2000/svg">
<path opacity="0.4" fill-rule="evenodd" clip-rule="evenodd" d="M142.91 -49L-7.4036e-06 35.6873L-2.12863e-05 194.486L142.828 289.705L291.065 204.999L291.065 35.66L142.91 -49ZM285.867 124.041L285.867 41.6463L228.694 74.3168L228.694 157.733L285.867 124.041ZM285.867 130.074L285.867 201.983L228.694 234.653L228.694 163.766L285.867 130.074ZM223.496 166.829L223.496 237.623L145.532 282.174L145.532 212.772L223.496 166.829ZM140.335 212.744L140.335 281.796L64.9698 231.553L64.9698 166.688L140.335 212.744ZM64.9698 160.596L140.335 206.653L140.335 121.81L65.3655 77.384L64.9698 77.6214L64.9698 160.596ZM59.7722 163.511L59.7722 228.088L5.19758 191.705L5.19759 130.16L59.7722 163.511ZM5.19759 124.069L59.7722 157.42L59.7722 74.6785L60.2829 74.3721L5.19759 41.7289L5.19759 124.069ZM145.532 206.739L223.496 160.796L223.496 77.2868L145.532 121.838L145.532 206.739ZM220.207 73.1799L142.957 117.323L70.4315 74.3444L144.487 29.9111L220.207 73.1799ZM139.312 26.9544L65.3489 71.3325L7.69646 37.1681L81.0825 -6.31993L139.312 26.9544ZM86.2253 -9.36752L144.423 23.8882L200.796 -9.93579L142.957 -42.9865L86.2253 -9.36752ZM205.97 -6.97902L149.597 26.845L225.445 70.1867L283.228 37.1681L205.97 -6.97902Z" fill="url(#paint0_linear_62_510)"/>
<defs>
<linearGradient id="paint0_linear_62_510" x1="2.18444e-06" y1="196" x2="283" y2="32.5" gradientUnits="userSpaceOnUse">
<stop stop-color="white"/>
<stop offset="1" stop-color="#748C85"/>
</linearGradient>
</defs>
</svg>
