<svg width="24" height="20" viewBox="0 0 24 20" fill="none" xmlns="http://www.w3.org/2000/svg">
<path d="M24.0003 10.0001C24.0003 10.2653 23.8949 10.5196 23.7074 10.7072C23.5199 10.8947 23.2655 11.0001 23.0003 11.0001H3.41405L10.7078 18.2926C10.8007 18.3855 10.8744 18.4958 10.9247 18.6172C10.975 18.7386 11.0009 18.8687 11.0009 19.0001C11.0009 19.1315 10.975 19.2616 10.9247 19.383C10.8744 19.5044 10.8007 19.6147 10.7078 19.7076C10.6149 19.8005 10.5046 19.8742 10.3832 19.9245C10.2618 19.9747 10.1317 20.0006 10.0003 20.0006C9.8689 20.0006 9.7388 19.9747 9.6174 19.9245C9.49601 19.8742 9.38571 19.8005 9.2928 19.7076L0.292798 10.7076C0.199822 10.6147 0.126063 10.5044 0.0757387 10.383C0.0254144 10.2616 -0.000488281 10.1315 -0.000488281 10.0001C-0.000488281 9.86865 0.0254144 9.73853 0.0757387 9.61713C0.126063 9.49573 0.199822 9.38544 0.292798 9.29257L9.2928 0.292568C9.48044 0.104927 9.73493 -0.000488283 10.0003 -0.000488281C10.2657 -0.000488279 10.5202 0.104927 10.7078 0.292568C10.8954 0.480208 11.0009 0.734704 11.0009 1.00007C11.0009 1.26543 10.8954 1.51993 10.7078 1.70757L3.41405 9.00007H23.0003C23.2655 9.00007 23.5199 9.10542 23.7074 9.29296C23.8949 9.4805 24.0003 9.73485 24.0003 10.0001Z" fill="#2C4026"/>
</svg>
