<svg width="24" height="20" viewBox="0 0 24 20" fill="none" xmlns="http://www.w3.org/2000/svg">
<path d="M23.707 10.7076L14.707 19.7076C14.5194 19.8952 14.2649 20.0006 13.9995 20.0006C13.7341 20.0006 13.4797 19.8952 13.292 19.7076C13.1044 19.5199 12.999 19.2654 12.999 19.0001C12.999 18.7347 13.1044 18.4802 13.292 18.2926L20.5858 11.0001H0.999512C0.734295 11.0001 0.479941 10.8947 0.292405 10.7072C0.104869 10.5196 -0.000488281 10.2653 -0.000488281 10.0001C-0.000488281 9.73485 0.104869 9.4805 0.292405 9.29296C0.479941 9.10542 0.734295 9.00007 0.999512 9.00007H20.5858L13.292 1.70757C13.1044 1.51993 12.999 1.26543 12.999 1.00007C12.999 0.734704 13.1044 0.480208 13.292 0.292568C13.4797 0.104927 13.7341 -0.000488281 13.9995 -0.000488281C14.2649 -0.000488281 14.5194 0.104927 14.707 0.292568L23.707 9.29257C23.8 9.38544 23.8737 9.49573 23.9241 9.61713C23.9744 9.73853 24.0003 9.86865 24.0003 10.0001C24.0003 10.1315 23.9744 10.2616 23.9241 10.383C23.8737 10.5044 23.8 10.6147 23.707 10.7076Z" fill="#2C4026"/>
</svg>
